<svg version="1" xmlns="http://www.w3.org/2000/svg" width="346.667" height="346.667" viewBox="0 0 260.000000 260.000000"><path d="M0 59v59h3c3.7 0 31.9 5.5 38.6 7.5 2.6.8 5 1.3 5.2 1.1.2-.2 1.1-4.4 2.2-9.4 5.2-25.6 23.5-48.4 47.6-59.3 20.2-9.2 46-9.5 66.8-.9 25.5 10.6 42.8 31.4 50.2 60.3 2.3 8.7 3.1 10.6 4.4 10.1 3.7-1.4 27.9-7.4 34.6-8.5l7.4-1.2V0H0v59zM0 193.9V260h178l-.7-3.3c-2.4-12.7-13.4-37.2-22.1-49-23.6-32.2-59.7-55.4-109.2-70.1-8.7-2.6-32.6-7.9-41.2-9.1l-4.8-.6v66zM249.8 130c-36.8 7.7-67.9 21.4-92.3 40.5-13.2 10.3-12.9 9.2-5.2 17.5 15.8 17.1 29.1 42 34.3 64.2l1.8 7.8H260v-66c0-36.3-.3-66-.7-65.9-.5 0-4.7.9-9.5 1.9z"/></svg>